<?xml version="1.0" encoding="utf-8"?>
<svg viewBox="31.56 128 232.984 43.418" xmlns="http://www.w3.org/2000/svg">
  <defs>
    <linearGradient y2="0%" x2="100%" y1="0%" x1="0%" id="7bb1bcbc-ef68-46f4-b502-d6b003e8233a" gradientTransform="rotate(25)">
      <stop stop-color="#410FF8" offset="0"/>
      <stop stop-color="#410FF8" offset="1"/>
    </linearGradient>
  </defs>
  <g>
    <title>Layer 1</title>
    <rect stroke="null" transform="translate(0 2) translate(0 300) scale(1 0.58) translate(0 -300) translate(0 0) scale(1 0.22) translate(0 0) translate(0 0) scale(0.876667 1) translate(0 0) translate(300 0) scale(0.88 1) translate(-300 0) translate(0 0) scale(1 1.06667) translate(0 0) translate(0 0) scale(1 1.06333) translate(0 0) translate(0 0) scale(1.00667 1) translate(0 0)" id="svg_1" class="logo-background-square" height="300px" width="300px" y="0" x="0" fill="url(#7bb1bcbc-ef68-46f4-b502-d6b003e8233a)"/>
    <g transform="matrix(1.8134755951121466,0,0,1.8134755951121466,79.61358704215671,137.49608613056577)" fill="#ffffff" id="053abbbe-e4a8-49f6-97fc-463be25ac029">
      <path id="svg_2" d="m4.35,10.5l-3.19,0l0,-9.14l2.69,0l0,0q1.01,0 1.9,0.31l0,0l0,0q0.89,0.3 1.54,0.88l0,0l0,0q0.66,0.59 1.05,1.42l0,0l0,0q0.38,0.83 0.38,1.88l0,0l0,0q0,0.98 -0.31,1.83l0,0l0,0q-0.3,0.85 -0.87,1.48l0,0l0,0q-0.57,0.63 -1.37,0.98l0,0l0,0q-0.81,0.36 -1.82,0.36l0,0zm-1.79,-7.91l0,6.69l1.68,0l0,0q0.6,0 1.15,-0.26l0,0l0,0q0.55,-0.26 0.95,-0.72l0,0l0,0q0.41,-0.46 0.65,-1.08l0,0l0,0q0.23,-0.63 0.23,-1.37l0,0l0,0q0,-0.74 -0.21,-1.34l0,0l0,0q-0.22,-0.6 -0.61,-1.03l0,0l0,0q-0.39,-0.43 -0.92,-0.66l0,0l0,0q-0.52,-0.23 -1.13,-0.23l0,0l-1.79,0zm8.91,-0.07l0,0l0,0q-0.37,0 -0.61,-0.26l0,0l0,0q-0.25,-0.26 -0.25,-0.61l0,0l0,0q0,-0.36 0.25,-0.61l0,0l0,0q0.24,-0.24 0.61,-0.24l0,0l0,0q0.35,0 0.61,0.24l0,0l0,0q0.25,0.25 0.25,0.61l0,0l0,0q0,0.35 -0.25,0.61l0,0l0,0q-0.26,0.26 -0.61,0.26zm0.65,0.84l0,7.56l0,0q0,1.02 -0.51,1.55l0,0l0,0q-0.51,0.52 -1.43,0.52l0,0l0,0q-0.41,0 -0.83,-0.11l0,0l0,-1.09l0,0q0.13,0.03 0.25,0.05l0,0l0,0q0.12,0.02 0.24,0.02l0,0l0,0q0.97,0 0.97,-1.15l0,0l0,-7.35l1.31,0zm5.27,-0.17l0,0l0,0q0.77,0.04 1.37,0.32l0,0l0,0q0.25,0.13 0.5,0.31l0,0l0,0q0.26,0.18 0.45,0.45l0,0l0,0q0.2,0.27 0.32,0.62l0,0l0,0q0.12,0.36 0.12,0.84l0,0l0,4.77l-1.24,0l-0.16,-0.87l0,0q0,0 -0.14,0.17l0,0l0,0q-0.14,0.17 -0.41,0.36l0,0l0,0q-0.27,0.19 -0.65,0.35l0,0l0,0q-0.39,0.16 -0.86,0.16l0,0l0,0q-1.16,0 -1.88,-0.53l0,0l0,0q-0.71,-0.52 -0.71,-1.68l0,0l0,0q0,-0.68 0.32,-1.12l0,0l0,0q0.32,-0.44 0.79,-0.7l0,0l0,0q0.47,-0.26 1,-0.35l0,0l0,0q0.52,-0.1 0.93,-0.1l0,0l1.69,0l0,-0.48l0,0q-0.06,-0.64 -0.34,-0.96l0,0l0,0q-0.29,-0.33 -0.7,-0.43l0,0l0,0q-0.42,-0.11 -0.9,-0.03l0,0l0,0q-0.48,0.08 -0.9,0.21l0,0l0,0q-0.42,0.13 -0.73,0.28l0,0l0,0q-0.31,0.15 -0.39,0.2l0,0l0,-1.12l0,0q0.39,-0.18 0.81,-0.33l0,0l0,0q0.36,-0.13 0.81,-0.23l0,0l0,0q0.45,-0.11 0.9,-0.11zm-0.59,6.41l0,0l0,0q0.84,0 1.37,-0.39l0,0l0,0q0.53,-0.4 0.66,-1.05l0,0l0,-1.02l-0.74,0l0,0q-0.27,0 -0.71,0.02l0,0l0,0q-0.44,0.02 -0.86,0.13l0,0l0,0q-0.42,0.12 -0.73,0.38l0,0l0,0q-0.31,0.25 -0.31,0.73l0,0l0,0q0,0.29 0.13,0.52l0,0l0,0q0.13,0.22 0.32,0.38l0,0l0,0q0.18,0.15 0.42,0.23l0,0l0,0q0.24,0.07 0.45,0.07zm9.23,-6.41l0,0l0,0q1.4,0 2.04,0.83l0,0l0,0q0.64,0.82 0.64,2.35l0,0l0,4.13l-1.33,0l0,-3.77l0,0q0,-1.27 -0.32,-1.87l0,0l0,0q-0.32,-0.6 -1.13,-0.6l0,0l0,0q-0.56,0 -0.97,0.21l0,0l0,0q-0.42,0.21 -0.7,0.59l0,0l0,0q-0.28,0.39 -0.42,0.93l0,0l0,0q-0.14,0.53 -0.14,1.19l0,0l0,3.32l-1.31,0l0,-7.14l1.1,0l0.21,1.13l0,0q0.34,-0.57 0.98,-0.93l0,0l0,0q0.65,-0.37 1.35,-0.37zm10.1,0.17l1.14,0l0,6.12l0,0q0,0.75 -0.19,1.4l0,0l0,0q-0.19,0.64 -0.63,1.11l0,0l0,0q-0.44,0.47 -1.18,0.74l0,0l0,0q-0.73,0.26 -1.82,0.26l0,0l0,0q-0.45,0 -0.85,-0.08l0,0l0,0q-0.4,-0.07 -0.72,-0.18l0,0l0,0q-0.37,-0.13 -0.69,-0.28l0,0l-0.18,-1.17l0,0q0.29,0.19 0.67,0.33l0,0l0,0q0.32,0.12 0.77,0.22l0,0l0,0q0.45,0.1 1,0.1l0,0l0,0q0.93,0 1.45,-0.26l0,0l0,0q0.51,-0.26 0.74,-0.64l0,0l0,0q0.24,-0.39 0.28,-0.84l0,0l0,0q0.03,-0.46 0.03,-0.84l0,0l0,0q-0.45,0.6 -1,0.88l0,0l0,0q-0.55,0.27 -1.28,0.27l0,0l0,0q-0.62,0 -1.19,-0.23l0,0l0,0q-0.57,-0.23 -1.02,-0.69l0,0l0,0q-0.45,-0.47 -0.72,-1.14l0,0l0,0q-0.26,-0.68 -0.26,-1.59l0,0l0,0q0,-0.9 0.26,-1.58l0,0l0,0q0.27,-0.68 0.72,-1.14l0,0l0,0q0.45,-0.46 1.02,-0.7l0,0l0,0q0.57,-0.24 1.19,-0.24l0,0l0,0q0.7,0 1.14,0.19l0,0l0,0q0.44,0.19 0.69,0.43l0,0l0,0q0.3,0.26 0.45,0.61l0,0l0.18,-1.06zm-2.22,6.08l0,0l0,0q0.46,0 0.84,-0.21l0,0l0,0q0.38,-0.2 0.64,-0.55l0,0l0,0q0.27,-0.35 0.42,-0.83l0,0l0,0q0.14,-0.47 0.14,-1l0,0l0,0q0,-0.54 -0.14,-1.01l0,0l0,0q-0.15,-0.46 -0.42,-0.82l0,0l0,0q-0.26,-0.36 -0.64,-0.56l0,0l0,0q-0.38,-0.2 -0.84,-0.2l0,0l0,0q-0.45,0 -0.83,0.2l0,0l0,0q-0.38,0.2 -0.64,0.56l0,0l0,0q-0.27,0.36 -0.41,0.82l0,0l0,0q-0.15,0.47 -0.15,1.01l0,0l0,0q0,0.53 0.15,1l0,0l0,0q0.14,0.48 0.41,0.83l0,0l0,0q0.26,0.35 0.64,0.55l0,0l0,0q0.38,0.21 0.83,0.21zm8.73,-6.25l0,0l0,0q0.55,0 1.19,0.16l0,0l0,0q0.63,0.16 1.18,0.58l0,0l0,0q0.55,0.42 0.92,1.15l0,0l0,0q0.37,0.73 0.37,1.86l0,0l0,0q0,1.14 -0.37,1.86l0,0l0,0q-0.37,0.72 -0.92,1.13l0,0l0,0q-0.55,0.42 -1.18,0.58l0,0l0,0q-0.64,0.16 -1.19,0.16l0,0l0,0q-0.53,0 -1.16,-0.16l0,0l0,0q-0.63,-0.16 -1.17,-0.58l0,0l0,0q-0.55,-0.41 -0.91,-1.13l0,0l0,0q-0.37,-0.72 -0.37,-1.86l0,0l0,0q0,-1.13 0.37,-1.86l0,0l0,0q0.36,-0.73 0.91,-1.15l0,0l0,0q0.54,-0.42 1.17,-0.58l0,0l0,0q0.63,-0.16 1.16,-0.16zm0,6.41l0,0l0,0q0.47,0 0.88,-0.16l0,0l0,0q0.41,-0.16 0.71,-0.49l0,0l0,0q0.3,-0.34 0.49,-0.84l0,0l0,0q0.18,-0.49 0.18,-1.17l0,0l0,0q0,-0.67 -0.18,-1.17l0,0l0,0q-0.19,-0.51 -0.49,-0.84l0,0l0,0q-0.3,-0.34 -0.71,-0.51l0,0l0,0q-0.41,-0.16 -0.88,-0.16l0,0l0,0q-0.44,0 -0.84,0.16l0,0l0,0q-0.4,0.17 -0.7,0.51l0,0l0,0q-0.3,0.33 -0.48,0.84l0,0l0,0q-0.17,0.5 -0.17,1.17l0,0l0,0q0,0.68 0.17,1.17l0,0l0,0q0.18,0.5 0.48,0.84l0,0l0,0q0.3,0.33 0.7,0.49l0,0l0,0q0.4,0.16 0.84,0.16zm14.34,-7.36l-0.52,1.22l0,0q-0.49,-0.37 -1.08,-0.58l0,0l0,0q-0.6,-0.21 -1.16,-0.21l0,0l0,0q-0.66,0 -1.05,0.27l0,0l0,0q-0.4,0.27 -0.4,0.85l0,0l0,0q0,0.31 0.14,0.53l0,0l0,0q0.15,0.22 0.4,0.38l0,0l0,0q0.24,0.16 0.56,0.28l0,0l0,0q0.32,0.12 0.69,0.24l0,0l0,0q0.47,0.17 0.96,0.36l0,0l0,0q0.49,0.19 0.89,0.5l0,0l0,0q0.4,0.3 0.65,0.77l0,0l0,0q0.24,0.47 0.24,1.17l0,0l0,0q0,0.69 -0.26,1.19l0,0l0,0q-0.27,0.49 -0.7,0.82l0,0l0,0q-0.44,0.33 -1,0.48l0,0l0,0q-0.57,0.16 -1.17,0.16l0,0l0,0q-0.9,0 -1.75,-0.35l0,0l0,0q-0.86,-0.34 -1.47,-0.98l0,0l0.53,-1.16l0,0q0.54,0.57 1.29,0.88l0,0l0,0q0.74,0.31 1.45,0.31l0,0l0,0q0.69,0 1.14,-0.28l0,0l0,0q0.44,-0.28 0.46,-0.91l0,0l0,0q0,-0.34 -0.16,-0.59l0,0l0,0q-0.15,-0.24 -0.42,-0.42l0,0l0,0q-0.26,-0.17 -0.6,-0.3l0,0l0,0q-0.35,-0.14 -0.7,-0.26l0,0l0,0q-0.46,-0.16 -0.93,-0.35l0,0l0,0q-0.47,-0.2 -0.85,-0.5l0,0l0,0q-0.37,-0.3 -0.6,-0.75l0,0l0,0q-0.24,-0.45 -0.24,-1.1l0,0l0,0q0,-0.68 0.26,-1.16l0,0l0,0q0.25,-0.48 0.66,-0.79l0,0l0,0q0.41,-0.31 0.95,-0.46l0,0l0,0q0.53,-0.14 1.1,-0.14l0,0l0,0q0.76,0 1.46,0.24l0,0l0,0q0.7,0.23 1.23,0.64l0,0zm5.4,0.95l0,0l0,0q0.45,0 0.77,0.05l0,0l0,0q0.33,0.05 0.54,0.11l0,0l0,0q0.25,0.07 0.42,0.15l0,0l0,0.99l0,0q-0.63,-0.21 -1.31,-0.23l0,0l0,0q-0.68,-0.03 -1.26,0.22l0,0l0,0q-0.57,0.25 -0.94,0.84l0,0l0,0q-0.37,0.59 -0.37,1.61l0,0l0,0q0,1.04 0.37,1.62l0,0l0,0q0.37,0.59 0.94,0.84l0,0l0,0q0.58,0.24 1.26,0.2l0,0l0,0q0.69,-0.04 1.31,-0.28l0,0l0,1.01l0,0q-0.17,0.11 -0.42,0.18l0,0l0,0q-0.21,0.07 -0.54,0.12l0,0l0,0q-0.32,0.05 -0.77,0.05l0,0l0,0q-0.53,0 -1.14,-0.16l0,0l0,0q-0.62,-0.16 -1.16,-0.58l0,0l0,0q-0.54,-0.42 -0.89,-1.15l0,0l0,0q-0.36,-0.73 -0.36,-1.85l0,0l0,0q0,-1.13 0.36,-1.86l0,0l0,0q0.35,-0.73 0.89,-1.14l0,0l0,0q0.54,-0.42 1.16,-0.58l0,0l0,0q0.61,-0.16 1.14,-0.16zm7.48,0.11l0,1.17l0,0q-0.1,-0.03 -0.21,-0.06l0,0l0,0q-0.1,-0.03 -0.22,-0.05l0,0l0,0q-0.12,-0.02 -0.23,-0.02l0,0l0,0q-0.6,0 -0.99,0.27l0,0l0,0q-0.39,0.28 -0.62,0.7l0,0l0,0q-0.22,0.42 -0.31,0.93l0,0l0,0q-0.09,0.52 -0.09,1.01l0,0l0,3.25l-1.32,0l0,-7.14l1.12,0l0.15,1.11l0,0q0.2,-0.35 0.44,-0.63l0,0l0,0q0.24,-0.27 0.56,-0.44l0,0l0,0q0.32,-0.17 0.74,-0.2l0,0l0,0q0.42,-0.04 0.98,0.1l0,0zm4.27,-0.11l0,0l0,0q0.77,0.04 1.37,0.32l0,0l0,0q0.25,0.13 0.51,0.31l0,0l0,0q0.25,0.18 0.44,0.45l0,0l0,0q0.2,0.27 0.32,0.62l0,0l0,0q0.12,0.36 0.12,0.84l0,0l0,4.77l-1.23,0l-0.17,-0.87l0,0q0,0 -0.14,0.17l0,0l0,0q-0.14,0.17 -0.41,0.36l0,0l0,0q-0.26,0.19 -0.65,0.35l0,0l0,0q-0.38,0.16 -0.86,0.16l0,0l0,0q-1.16,0 -1.88,-0.53l0,0l0,0q-0.71,-0.52 -0.71,-1.68l0,0l0,0q0,-0.68 0.32,-1.12l0,0l0,0q0.32,-0.44 0.79,-0.7l0,0l0,0q0.47,-0.26 1,-0.35l0,0l0,0q0.52,-0.1 0.93,-0.1l0,0l1.69,0l0,-0.48l0,0q-0.05,-0.64 -0.34,-0.96l0,0l0,0q-0.29,-0.33 -0.7,-0.43l0,0l0,0q-0.41,-0.11 -0.9,-0.03l0,0l0,0q-0.48,0.08 -0.9,0.21l0,0l0,0q-0.42,0.13 -0.73,0.28l0,0l0,0q-0.31,0.15 -0.39,0.2l0,0l0,-1.12l0,0q0.39,-0.18 0.81,-0.33l0,0l0,0q0.37,-0.13 0.81,-0.23l0,0l0,0q0.45,-0.11 0.9,-0.11zm-0.59,6.41l0,0l0,0q0.84,0 1.37,-0.39l0,0l0,0q0.54,-0.4 0.66,-1.05l0,0l0,-1.02l-0.74,0l0,0q-0.27,0 -0.71,0.02l0,0l0,0q-0.44,0.02 -0.86,0.13l0,0l0,0q-0.42,0.12 -0.73,0.38l0,0l0,0q-0.3,0.25 -0.3,0.73l0,0l0,0q0,0.29 0.12,0.52l0,0l0,0q0.13,0.22 0.32,0.38l0,0l0,0q0.19,0.15 0.42,0.23l0,0l0,0q0.24,0.07 0.45,0.07zm9.34,1.07l0,0l0,0q-0.7,0 -1.35,-0.26l0,0l0,0q-0.65,-0.26 -1.09,-0.83l0,0l0,2.82l-1.31,0l0,-9.04l1.1,0l0.21,1.01l0,0.01l0,0q0.2,-0.33 0.54,-0.59l0,0l0,0q0.28,-0.22 0.75,-0.41l0,0l0,0q0.46,-0.19 1.15,-0.19l0,0l0,0q0.71,0 1.28,0.3l0,0l0,0q0.57,0.3 0.96,0.81l0,0l0,0q0.39,0.5 0.6,1.18l0,0l0,0q0.2,0.68 0.2,1.44l0,0l0,0q0,0.75 -0.2,1.43l0,0l0,0q-0.21,0.68 -0.6,1.2l0,0l0,0q-0.39,0.52 -0.96,0.82l0,0l0,0q-0.57,0.3 -1.28,0.3zm-0.29,-6.41l0,0l0,0q-0.42,0 -0.81,0.16l0,0l0,0q-0.38,0.16 -0.68,0.49l0,0l0,0q-0.29,0.33 -0.47,0.83l0,0l0,0q-0.19,0.5 -0.19,1.18l0,0l0,0q0,0.67 0.19,1.17l0,0l0,0q0.18,0.51 0.47,0.84l0,0l0,0q0.3,0.34 0.68,0.51l0,0l0,0q0.39,0.16 0.81,0.16l0,0l0,0q0.39,0 0.74,-0.16l0,0l0,0q0.35,-0.17 0.61,-0.51l0,0l0,0q0.27,-0.33 0.42,-0.84l0,0l0,0q0.16,-0.5 0.16,-1.17l0,0l0,0q0,-0.68 -0.16,-1.18l0,0l0,0q-0.15,-0.5 -0.42,-0.83l0,0l0,0q-0.26,-0.33 -0.61,-0.49l0,0l0,0q-0.35,-0.16 -0.74,-0.16zm8.47,6.41l0,0l0,0q-1.21,0 -1.96,-0.36l0,0l0,0q-0.75,-0.36 -1.17,-0.92l0,0l0,0q-0.42,-0.56 -0.57,-1.25l0,0l0,0q-0.15,-0.69 -0.15,-1.36l0,0l0,0q0,-0.68 0.21,-1.32l0,0l0,0q0.22,-0.64 0.63,-1.15l0,0l0,0q0.42,-0.5 1.02,-0.81l0,0l0,0q0.6,-0.31 1.38,-0.31l0,0l0,0q0.94,0 1.57,0.33l0,0l0,0q0.63,0.33 1.01,0.86l0,0l0,0q0.38,0.52 0.53,1.16l0,0l0,0q0.16,0.63 0.16,1.24l0,0l0,0.44l-5.11,0l0,0q0.05,0.68 0.3,1.19l0,0l0,0q0.12,0.23 0.28,0.45l0,0l0,0q0.17,0.21 0.42,0.38l0,0l0,0q0.24,0.17 0.56,0.27l0,0l0,0q0.33,0.09 0.75,0.09l0,0l0,0q0.44,0 0.84,-0.1l0,0l0,0q0.4,-0.11 0.71,-0.23l0,0l0,0q0.36,-0.16 0.67,-0.35l0,0l0.02,1.2l0,0q0,0 -0.16,0.09l0,0l0,0q-0.17,0.09 -0.45,0.19l0,0l0,0q-0.28,0.1 -0.66,0.18l0,0l0,0q-0.39,0.09 -0.83,0.09zm-2.45,-4.43l3.71,0l0,0q0,-0.35 -0.11,-0.7l0,0l0,0q-0.1,-0.36 -0.33,-0.65l0,0l0,0q-0.22,-0.28 -0.57,-0.46l0,0l0,0q-0.35,-0.17 -0.86,-0.17l0,0l0,0q-0.43,0 -0.77,0.17l0,0l0,0q-0.35,0.18 -0.58,0.46l0,0l0,0q-0.24,0.29 -0.37,0.65l0,0l0,0q-0.12,0.35 -0.12,0.7l0,0zm10.86,-2.94l0,1.17l0,0q-0.1,-0.03 -0.21,-0.06l0,0l0,0q-0.1,-0.03 -0.22,-0.05l0,0l0,0q-0.12,-0.02 -0.23,-0.02l0,0l0,0q-0.6,0 -0.99,0.27l0,0l0,0q-0.39,0.28 -0.62,0.7l0,0l0,0q-0.22,0.42 -0.31,0.93l0,0l0,0q-0.09,0.52 -0.09,1.01l0,0l0,3.25l-1.32,0l0,-7.14l1.12,0l0.15,1.11l0,0q0.2,-0.35 0.44,-0.63l0,0l0,0q0.24,-0.27 0.56,-0.44l0,0l0,0q0.32,-0.17 0.74,-0.2l0,0l0,0q0.42,-0.04 0.98,0.1l0,0z"/>
    </g>
    <g transform="matrix(0.3791552611819189,0,0,0.3791552611819189,35.400846638472444,131.04223820647127)" fill="#ffffff" id="5b9b8cc7-dc67-4e50-9eda-da13f3cda469">
      <path id="svg_3" d="m50,6.272l-37.87,21.865l0,43.728l37.87,21.863l37.87,-21.863l0,-43.728l-37.87,-21.865zm28.438,26.419l-27.438,-15.841l0,-7.691l33.898,19.571l-6.46,3.961zm-28.438,26.661l-7.21,-4.162l0,-8.326l7.21,-4.163l7.209,4.162l0,8.326l-7.209,4.163zm-1,-18.384l-6.67,3.851l-7.902,-4.675l14.572,-8.413l0,9.237zm-8.21,5.264l0,8.625l-8,4.451l0,-17.81l8,4.734zm0.708,10.521l7.502,4.33l0,9.238l-15.65,-9.035l8.148,-4.533zm9.502,4.33l7.502,-4.331l8.148,4.534l-15.65,9.035l0,-9.238zm8.209,-6.228l0,-8.73l0.314,0.513l7.687,-4.714l0,17.383l-8.001,-4.452zm-0.73,-9.921l0.335,0.547l-7.814,-4.512l0,-9.237l14.94,8.625l-7.461,4.577zm-9.479,-15.512l-16.547,9.553l-8.779,-5.194l25.326,-14.622l0,10.263zm-18.21,10.893l0,20.107l-8,4.451l0,-29.291l8,4.733zm0.523,22.105l17.687,10.21l0,8.212l-24.929,-14.393l7.242,-4.029zm19.687,10.21l17.687,-10.211l7.243,4.03l-24.93,14.393l0,-8.212zm18.21,-12.209l0,-19.723l8,-4.907l0,29.081l-8,-4.451zm-1.331,-21.253l-16.879,-9.745l0,-10.264l25.5,14.722l-8.621,5.287zm-18.879,-22.319l-27.301,15.763l-6.579,-3.893l33.88,-19.56l0,7.69zm-28.21,17.549l0,31.588l-6.66,3.705l0,-39.233l6.66,3.94zm1.244,33.185l26.966,15.567l0,7.691l-33.749,-19.484l6.783,-3.774zm28.966,15.567l26.966,-15.568l6.783,3.775l-33.749,19.485l0,-7.692zm28.21,-17.165l0,-31.421l6.66,-4.085l0,39.212l-6.66,-3.706z"/>
    </g>
  </g>
</svg>